<svg id="visual" viewBox="0 0 900 600" width="900" height="600" xmlns="http://www.w3.org/2000/svg" xmlns:xlink="http://www.w3.org/1999/xlink" version="1.1"><g><g transform="translate(678 45)"><path d="M85.2 -52C99.6 -24.3 92.9 12.8 75.2 43.4C57.5 74.1 28.8 98.3 -2 99.5C-32.8 100.6 -65.7 78.8 -81.2 49.3C-96.8 19.9 -95.1 -17 -78.7 -45.9C-62.3 -74.8 -31.1 -95.7 2.1 -96.9C35.4 -98.1 70.8 -79.7 85.2 -52Z" fill="none" stroke="#F7760E" stroke-width="20"></path></g><g transform="translate(451 265)"><path d="M27.8 -14.9C34.2 -5 36.3 8.6 30.9 18.5C25.6 28.4 12.8 34.6 -0.5 34.9C-13.7 35.1 -27.4 29.4 -34 18.8C-40.6 8.2 -40.1 -7.3 -33.2 -17.5C-26.4 -27.8 -13.2 -32.7 -1.2 -32C10.7 -31.3 21.4 -24.9 27.8 -14.9Z" fill="none" stroke="#F7760E" stroke-width="20"></path></g><g transform="translate(193 551)"><path d="M33.1 -20.4C40.5 -6.4 42.3 9.6 35.9 21C29.4 32.5 14.7 39.5 -0.6 39.8C-15.9 40.1 -31.8 33.8 -39.9 21.4C-48.1 8.9 -48.5 -9.7 -40.5 -24.1C-32.6 -38.5 -16.3 -48.7 -1.7 -47.7C12.9 -46.7 25.8 -34.5 33.1 -20.4Z" fill="none" stroke="#F7760E" stroke-width="20"></path></g><g transform="translate(587 540)"><path d="M51.1 -32.1C61.4 -11.7 61.5 11.9 51.2 31.7C41 51.4 20.5 67.3 0.4 67.1C-19.7 66.8 -39.3 50.4 -50.7 30C-62 9.6 -65.1 -14.9 -55.2 -34.9C-45.4 -55 -22.7 -70.6 -1.1 -70C20.4 -69.3 40.9 -52.4 51.1 -32.1Z" stroke="#F7760E" fill="none" stroke-width="20"></path></g><g transform="translate(84 146)"><path d="M55.7 -31.1C68.6 -9.7 73.2 17.6 62.6 37.5C51.9 57.4 25.9 69.8 -0.5 70.1C-27 70.4 -54 58.6 -66.6 37.6C-79.3 16.6 -77.6 -13.6 -64.1 -35.4C-50.6 -57.1 -25.3 -70.4 -2 -69.2C21.3 -68.1 42.7 -52.5 55.7 -31.1Z" stroke="#F7760E" fill="none" stroke-width="20"></path></g><g transform="translate(885 584)"><path d="M61 -32.3C73.4 -13.8 73.9 14.6 61.7 32.7C49.6 50.9 24.8 58.8 0.6 58.5C-23.6 58.1 -47.1 49.5 -59.3 31.3C-71.4 13.2 -72.2 -14.5 -60.4 -32.7C-48.7 -50.8 -24.3 -59.5 0 -59.5C24.3 -59.5 48.6 -50.8 61 -32.3Z" stroke="#F7760E" fill="none" stroke-width="20"></path></g><g transform="translate(787 305)"><path d="M41.1 -24.4C48.1 -11.7 45 6.2 36.4 18.7C27.9 31.2 13.9 38.3 -1.6 39.2C-17.2 40.2 -34.4 35 -41.2 23.5C-47.9 12.1 -44.2 -5.6 -35.6 -19.3C-27 -32.9 -13.5 -42.4 1.8 -43.5C17.1 -44.5 34.2 -37.1 41.1 -24.4Z" stroke="#F7760E" fill="none" stroke-width="20"></path></g><g transform="translate(412 5)"><path d="M58 -34C69.3 -14 68.4 12.5 56.7 35.6C45 58.7 22.5 78.4 -2.4 79.8C-27.4 81.2 -54.8 64.3 -69.1 39.7C-83.3 15.2 -84.5 -17.2 -70.8 -38.5C-57.1 -59.9 -28.6 -70.4 -2.6 -68.9C23.4 -67.4 46.8 -53.9 58 -34Z" stroke="#F7760E" fill="none" stroke-width="20"></path></g></g></svg>