<svg id="visual" viewBox="0 0 900 600" width="900" height="600" xmlns="http://www.w3.org/2000/svg" xmlns:xlink="http://www.w3.org/1999/xlink" version="1.1"><rect x="0" y="0" width="900" height="600" fill="#FFFFFF"></rect><defs><linearGradient id="grad1_0" x1="33.3%" y1="0%" x2="100%" y2="100%"><stop offset="20%" stop-color="#c07142" stop-opacity="1"></stop><stop offset="80%" stop-color="#c07142" stop-opacity="1"></stop></linearGradient></defs><defs><linearGradient id="grad1_1" x1="33.3%" y1="0%" x2="100%" y2="100%"><stop offset="20%" stop-color="#c07142" stop-opacity="1"></stop><stop offset="80%" stop-color="#ffffff" stop-opacity="1"></stop></linearGradient></defs><defs><linearGradient id="grad2_0" x1="0%" y1="0%" x2="66.7%" y2="100%"><stop offset="20%" stop-color="#c07142" stop-opacity="1"></stop><stop offset="80%" stop-color="#c07142" stop-opacity="1"></stop></linearGradient></defs><defs><linearGradient id="grad2_1" x1="0%" y1="0%" x2="66.7%" y2="100%"><stop offset="20%" stop-color="#ffffff" stop-opacity="1"></stop><stop offset="80%" stop-color="#c07142" stop-opacity="1"></stop></linearGradient></defs><g transform="translate(900, 0)"><path d="M0 486.7C-45.3 458.6 -90.6 430.4 -132.6 408C-174.6 385.6 -213.2 368.8 -252.7 347.9C-292.3 326.9 -332.6 301.8 -370.5 269.2C-408.5 236.6 -444 196.5 -462.9 150.4C-481.9 104.3 -484.3 52.2 -486.7 0L0 0Z" fill="#e6b69d"></path><path d="M0 243.4C-22.6 229.3 -45.3 215.2 -66.3 204C-87.3 192.8 -106.6 184.4 -126.4 173.9C-146.1 163.5 -166.3 150.9 -185.3 134.6C-204.2 118.3 -222 98.3 -231.5 75.2C-240.9 52.2 -242.2 26.1 -243.4 0L0 0Z" fill="#c07142"></path></g><g transform="translate(0, 600)"><path d="M0 -486.7C40.9 -451.1 81.8 -415.4 130.4 -401.3C179 -387.3 235.2 -395 270.4 -372.1C305.6 -349.3 319.8 -295.9 352.7 -256.3C385.7 -216.7 437.5 -190.8 462.9 -150.4C488.4 -110 487.6 -55 486.7 0L0 0Z" fill="#e6b69d"></path><path d="M0 -243.4C20.5 -225.5 40.9 -207.7 65.2 -200.7C89.5 -193.7 117.6 -197.5 135.2 -186.1C152.8 -174.6 159.9 -147.9 176.4 -128.1C192.9 -108.3 218.7 -95.4 231.5 -75.2C244.2 -55 243.8 -27.5 243.4 0L0 0Z" fill="#c07142"></path></g></svg>