<svg id="visual" viewBox="0 0 600 400" width="600" height="400" xmlns="http://www.w3.org/2000/svg" xmlns:xlink="http://www.w3.org/1999/xlink" version="1.1"><rect x="0" y="0" width="600" height="400" fill="#FFFFFF"></rect><path d="M232 0L218.8 16.7C205.7 33.3 179.3 66.7 178.3 100C177.3 133.3 201.7 166.7 208.5 200C215.3 233.3 204.7 266.7 201.7 300C198.7 333.3 203.3 366.7 205.7 383.3L208 400L0 400L0 383.3C0 366.7 0 333.3 0 300C0 266.7 0 233.3 0 200C0 166.7 0 133.3 0 100C0 66.7 0 33.3 0 16.7L0 0Z" fill="#fadbdb"></path><path d="M159 0L160.2 16.7C161.3 33.3 163.7 66.7 164.3 100C165 133.3 164 166.7 163.3 200C162.7 233.3 162.3 266.7 161.2 300C160 333.3 158 366.7 157 383.3L156 400L0 400L0 383.3C0 366.7 0 333.3 0 300C0 266.7 0 233.3 0 200C0 166.7 0 133.3 0 100C0 66.7 0 33.3 0 16.7L0 0Z" fill="#f9d2d2"></path><path d="M116 0L115.8 16.7C115.7 33.3 115.3 66.7 117.8 100C120.3 133.3 125.7 166.7 132.2 200C138.7 233.3 146.3 266.7 146.5 300C146.7 333.3 139.3 366.7 135.7 383.3L132 400L0 400L0 383.3C0 366.7 0 333.3 0 300C0 266.7 0 233.3 0 200C0 166.7 0 133.3 0 100C0 66.7 0 33.3 0 16.7L0 0Z" fill="#f7caca"></path><path d="M62 0L61.3 16.7C60.7 33.3 59.3 66.7 68 100C76.7 133.3 95.3 166.7 105.3 200C115.3 233.3 116.7 266.7 113 300C109.3 333.3 100.7 366.7 96.3 383.3L92 400L0 400L0 383.3C0 366.7 0 333.3 0 300C0 266.7 0 233.3 0 200C0 166.7 0 133.3 0 100C0 66.7 0 33.3 0 16.7L0 0Z" fill="#f6bdbd"></path><path d="M53 0L53.8 16.7C54.7 33.3 56.3 66.7 56.7 100C57 133.3 56 166.7 52.5 200C49 233.3 43 266.7 42.3 300C41.7 333.3 46.3 366.7 48.7 383.3L51 400L0 400L0 383.3C0 366.7 0 333.3 0 300C0 266.7 0 233.3 0 200C0 166.7 0 133.3 0 100C0 66.7 0 33.3 0 16.7L0 0Z" fill="#f5b0b0"></path></svg>