<svg xmlns="http://www.w3.org/2000/svg" version="1.1" xmlns:xlink="http://www.w3.org/1999/xlink" xmlns:svgjs="http://svgjs.dev/svgjs" width="440" height="760" preserveAspectRatio="none" viewBox="0 0 440 760"><g mask="url(&quot;#SvgjsMask1766&quot;)" fill="none"><rect width="440" height="760" x="0" y="0" fill="url(&quot;#SvgjsLinearGradient1767&quot;)"></rect><path d="M440 0L221.31 0L440 200.79z" fill="rgba(255, 255, 255, .1)"></path><path d="M221.31 0L440 200.79L440 491.29999999999995L172.15 0z" fill="rgba(255, 255, 255, .075)"></path><path d="M172.14999999999998 0L440 491.29999999999995L440 618.25L111.35999999999999 0z" fill="rgba(255, 255, 255, .05)"></path><path d="M111.35999999999996 0L440 618.25L440 658.64L56.829999999999956 0z" fill="rgba(255, 255, 255, .025)"></path><path d="M0 760L158.3 760L0 675.3199999999999z" fill="rgba(0, 0, 0, .1)"></path><path d="M0 675.3199999999999L158.3 760L166.70000000000002 760L0 623.4599999999999z" fill="rgba(0, 0, 0, .075)"></path><path d="M0 623.46L166.70000000000002 760L232.16000000000003 760L0 483.0400000000001z" fill="rgba(0, 0, 0, .05)"></path><path d="M0 483.03999999999996L232.16000000000003 760L288.57000000000005 760L0 178.01999999999998z" fill="rgba(0, 0, 0, .025)"></path></g><defs><mask id="SvgjsMask1766"><rect width="440" height="760" fill="#ffffff"></rect></mask><linearGradient x1="50%" y1="0%" x2="50%" y2="100%" gradientUnits="userSpaceOnUse" id="SvgjsLinearGradient1767"><stop stop-color="rgba(221, 136, 71, 0.17)" offset="0.16"></stop><stop stop-color="rgba(247, 179, 119, 0.87)" offset="1"></stop></linearGradient></defs></svg>